<svg xmlns="http://www.w3.org/2000/svg" width="1600" height="1000" viewBox="0 0 1600 1000">
  <defs>
    <linearGradient id="bg" x1="0" y1="0" x2="1" y2="1">
      <stop offset="0" stop-color="#5ea3e0"/>
      <stop offset="0.58" stop-color="#2d7fca"/>
      <stop offset="1" stop-color="#a9cae4"/>
    </linearGradient>
    <linearGradient id="wallFront" x1="0" y1="0" x2="0" y2="1">
      <stop offset="0" stop-color="#ece6dc"/>
      <stop offset="1" stop-color="#d8d0c2"/>
    </linearGradient>
    <linearGradient id="wallSide" x1="0" y1="0" x2="0" y2="1">
      <stop offset="0" stop-color="#e4ddd0"/>
      <stop offset="1" stop-color="#cfc6b6"/>
    </linearGradient>
  </defs>

  <rect width="1600" height="1000" fill="url(#bg)"/>
  <polygon points="220,690 1090,690 1350,860 490,860" fill="#dddcd8" opacity="0.95"/>

  <g transform="translate(430,360)">
    <polygon points="0,160 580,40 860,170 260,300" fill="#ede8de" stroke="#b8aea0" stroke-width="4"/>
    <polygon points="0,160 0,500 260,640 260,300" fill="url(#wallFront)" stroke="#b8aea0" stroke-width="4"/>
    <polygon points="260,300 860,170 860,510 260,640" fill="url(#wallSide)" stroke="#b8aea0" stroke-width="4"/>

    <g stroke="#c7bdb0" stroke-width="3" opacity="0.85">
      <line x1="0" y1="248" x2="860" y2="118"/>
      <line x1="0" y1="336" x2="860" y2="206"/>
      <line x1="0" y1="424" x2="860" y2="294"/>
    </g>

    <g fill="#bed2e0" stroke="#8ea6b8" stroke-width="2.2" opacity="0.96">
      <rect x="120" y="315" width="78" height="31" rx="5"/>
      <rect x="248" y="288" width="82" height="31" rx="5"/>
      <rect x="370" y="262" width="86" height="31" rx="5"/>
      <rect x="505" y="235" width="90" height="31" rx="5"/>
      <rect x="640" y="206" width="94" height="31" rx="5"/>

      <rect x="610" y="380" width="98" height="34" rx="5"/>
      <rect x="710" y="358" width="96" height="34" rx="5"/>
      <rect x="674" y="468" width="105" height="36" rx="5"/>
    </g>

    <g fill="#7f5434" stroke="#5c3a23" stroke-width="3.2">
      <rect x="430" y="468" width="56" height="124" rx="4"/>
      <rect x="516" y="446" width="56" height="142" rx="4"/>
    </g>
  </g>
</svg>
