<svg xmlns="http://www.w3.org/2000/svg" viewBox="0 0 401 509" fill="none">
  <defs>
    <linearGradient id="sky" x1="200.5" y1="0" x2="200.5" y2="180" gradientUnits="userSpaceOnUse">
      <stop stop-color="#74ADD7"/>
      <stop offset="1" stop-color="#99C4E4"/>
    </linearGradient>
    <linearGradient id="wall" x1="0" y1="0" x2="1" y2="1">
      <stop stop-color="#F1ECE4"/>
      <stop offset="1" stop-color="#D9D1C5"/>
    </linearGradient>
    <linearGradient id="floor" x1="0" y1="0" x2="0" y2="1">
      <stop stop-color="#EFE6D8"/>
      <stop offset="1" stop-color="#E0D4C3"/>
    </linearGradient>
    <linearGradient id="door" x1="0" y1="0" x2="1" y2="1">
      <stop stop-color="#6F4128"/>
      <stop offset="1" stop-color="#3D2015"/>
    </linearGradient>
  </defs>
  <rect width="401" height="509" fill="url(#sky)"/>
  <rect y="179" width="401" height="330" fill="#F3F0EA"/>
  <path d="M36 113H370L347 161H14L36 113Z" fill="#F3EFE9"/>
  <path d="M14 161H347V401H14V161Z" fill="url(#floor)"/>
  <path d="M14 161L61 196V443L14 401V161Z" fill="#E6DDD2"/>
  <path d="M347 161L370 113V356L347 401V161Z" fill="#D6CEC2"/>
  <path d="M61 196H370V443H61V196Z" fill="url(#floor)"/>
  <path d="M61 196L105 228V474L61 443V196Z" fill="#DDD4C8"/>
  <path d="M105 228H370V474H105V228Z" fill="#EEE5D7"/>
  <path d="M61 196H191V257H61V196Z" fill="url(#wall)"/>
  <path d="M228 196H370V257H228V196Z" fill="url(#wall)"/>
  <path d="M61 257H191V321H61V257Z" fill="url(#wall)"/>
  <path d="M228 257H370V321H228V257Z" fill="url(#wall)"/>
  <path d="M61 321H370V443H61V321Z" fill="#F2E9DB"/>
  <rect x="186" y="196" width="10" height="126" fill="#DDD4C8"/>
  <rect x="219" y="196" width="10" height="126" fill="#DDD4C8"/>
  <rect x="61" y="315" width="309" height="10" fill="#D7CEC1"/>
  <rect x="92" y="306" width="46" height="72" fill="url(#door)"/>
  <rect x="202" y="306" width="46" height="72" fill="url(#door)"/>
  <rect x="326" y="357" width="40" height="86" fill="url(#door)"/>
  <rect x="72" y="234" width="44" height="18" fill="#D8E7F1" stroke="#31353B" stroke-width="2"/>
  <rect x="252" y="234" width="44" height="18" fill="#D8E7F1" stroke="#31353B" stroke-width="2"/>
  <rect x="16" y="365" width="36" height="18" fill="#D8E7F1" stroke="#31353B" stroke-width="2"/>
  <rect x="115" y="438" width="56" height="18" fill="#D8E7F1" stroke="#31353B" stroke-width="2"/>
  <rect x="233" y="438" width="56" height="18" fill="#D8E7F1" stroke="#31353B" stroke-width="2"/>
  <rect x="340" y="181" width="10" height="220" fill="#D0C8BC"/>
  <rect x="14" y="394" width="333" height="7" fill="#D5CCBE"/>
  <path d="M61 196H370" stroke="#F9F6F0" stroke-width="3"/>
  <path d="M105 228H370" stroke="#F8F4ED" stroke-width="2"/>
  <rect x="177" y="128" width="45" height="9" rx="3" fill="#ECE7DF"/>
  <rect x="173" y="126" width="53" height="13" rx="4" stroke="#D5CFC6" stroke-width="2"/>
</svg>
