<svg xmlns="http://www.w3.org/2000/svg" width="1400" height="950" viewBox="0 0 1400 950">
  <rect width="1400" height="950" fill="#f7f7f4"/>
  <rect x="70" y="70" width="1260" height="810" fill="#ffffff" stroke="#1f2a37" stroke-width="14" rx="8"/>
  <g stroke="#2b3440" stroke-width="10" stroke-linecap="square">
    <line x1="390" y1="70" x2="390" y2="880"/>
    <line x1="760" y1="70" x2="760" y2="880"/>
    <line x1="70" y1="420" x2="1330" y2="420"/>
    <line x1="980" y1="420" x2="980" y2="880"/>
  </g>
  <g fill="#8b5e3c">
    <circle cx="390" cy="220" r="14"/>
    <circle cx="390" cy="650" r="14"/>
    <circle cx="760" cy="240" r="14"/>
    <circle cx="760" cy="620" r="14"/>
    <circle cx="980" cy="420" r="14"/>
  </g>
  <g fill="#b9d8e8">
    <rect x="180" y="838" width="140" height="18" rx="6"/>
    <rect x="1060" y="838" width="150" height="18" rx="6"/>
    <rect x="170" y="94" width="135" height="18" rx="6"/>
    <rect x="595" y="94" width="140" height="18" rx="6"/>
    <rect x="1035" y="94" width="155" height="18" rx="6"/>
    <rect x="1260" y="255" width="18" height="130" rx="6"/>
  </g>
  <text x="112" y="150" fill="#495464" font-size="40" font-family="Segoe UI, Arial, sans-serif" font-weight="700">2D Plan Sample</text>
</svg>
